<?xml version="1.0" encoding="UTF-8" standalone="no"?>
<svg viewBox="0 0 19 12" version="1.1" xmlns="http://www.w3.org/2000/svg" xmlns:xlink="http://www.w3.org/1999/xlink">
    <!-- Generator: Sketch 40 (33762) - http://www.bohemiancoding.com/sketch -->
    <title>icon/cardboard</title>
    <desc>Created with Sketch.</desc>
    <defs></defs>
    <g id="Symbols" stroke="none" stroke-width="1" fill="none" fill-rule="evenodd" fill-opacity="0.9">
        <g id="icon/cardboard" fill="#FFFFFF">
            <path d="M18.6683478,0.328425151 C18.1515366,-0.170775711 0.696951724,-0.0435800979 0.312503698,0.328425151 C-0.103423954,0.73037287 -0.104911181,11.355159 0.312503698,11.7575858 C0.450815754,11.8914885 3.32438505,11.9722134 6.75888656,12 L7.519355,9.96726559 C7.519355,9.96726559 8.01187481,8.04136591 9.48249386,8.04136591 C11.0334231,8.04136591 11.7108548,10.3589131 11.7108548,10.3589131 L12.3441653,11.9992814 C15.7233916,11.9714948 18.5302836,11.8907699 18.6683478,11.7578253 C19.0532915,11.3855805 19.1643378,0.807744212 18.6683478,0.328425151 L18.6683478,0.328425151 Z M4.49988614,8 C3.11923305,8 2,6.88099467 2,5.49988614 C2,4.11923305 3.11923305,3 4.49988614,3 C5.88053924,3 7,4.11923305 7,5.49988614 C7,6.88099467 5.88053924,8 4.49988614,8 L4.49988614,8 Z M14.5001139,8 C13.1194608,8 12,6.88099467 12,5.49988614 C12,4.11923305 13.1194608,3 14.5001139,3 C15.8805392,3 17,4.11923305 17,5.49988614 C17,6.88099467 15.8805392,8 14.5001139,8 L14.5001139,8 Z" id="Shape"></path>
        </g>
    </g>
</svg>
