<?xml version="1.0" encoding="UTF-8" standalone="no"?>
<svg viewBox="0 0 16 16" version="1.1" xmlns="http://www.w3.org/2000/svg" xmlns:xlink="http://www.w3.org/1999/xlink">
    <!-- Generator: Sketch 40 (33762) - http://www.bohemiancoding.com/sketch -->
    <title>icon/expand</title>
    <desc>Created with Sketch.</desc>
    <defs></defs>
    <g id="Symbols" stroke="none" stroke-width="1" fill="none" fill-rule="evenodd" stroke-linecap="round" opacity="0.9" stroke-linejoin="round">
        <g id="icon/expand" stroke="#FFFFFF" stroke-width="2">
            <g id="Group-8" transform="translate(-2.000000, -2.000000)">
                <path d="M2.77144681,5.98168553 L8.83601323,5.83426236" id="Path-3" transform="translate(5.803730, 5.907974) rotate(45.000000) translate(-5.803730, -5.907974) "></path>
                <path d="M1.23223305,3.73223305 L4.76776695,7.26776695" id="Path-3-Copy" transform="translate(3.000000, 5.500000) rotate(45.000000) translate(-3.000000, -5.500000) "></path>
                <path d="M3.73223307,4.76776688 L7.26776678,1.23223299" id="Path-3-Copy-2" transform="translate(5.500000, 3.000000) rotate(45.000000) translate(-5.500000, -3.000000) "></path>
                <path d="M11.1639868,14.1657376 L17.2285532,14.0183145" id="Path-3" transform="translate(14.196270, 14.092026) scale(-1, -1) rotate(45.000000) translate(-14.196270, -14.092026) "></path>
                <path d="M15.232233,12.732233 L18.767767,16.267767" id="Path-3-Copy" transform="translate(17.000000, 14.500000) scale(-1, -1) rotate(45.000000) translate(-17.000000, -14.500000) "></path>
                <path d="M12.7322332,18.767767 L16.2677669,15.2322331" id="Path-3-Copy-2" transform="translate(14.500000, 17.000000) scale(-1, -1) rotate(45.000000) translate(-14.500000, -17.000000) "></path>
            </g>
        </g>
    </g>
</svg>
