<?xml version="1.0" encoding="UTF-8" standalone="no"?>
<svg width="72px" height="56px" viewBox="0 0 72 56" version="1.1" xmlns="http://www.w3.org/2000/svg" xmlns:xlink="http://www.w3.org/1999/xlink">
    <!-- Generator: Sketch 40.3 (33839) - http://www.bohemiancoding.com/sketch -->
    <title>rotate</title>
    <desc>Created with Sketch.</desc>
    <defs>
        <rect id="path-1" x="0" y="0" width="27" height="48" rx="4"></rect>
        <mask id="mask-2" maskContentUnits="userSpaceOnUse" maskUnits="objectBoundingBox" x="0" y="0" width="27" height="48" fill="white">
            <use xlink:href="#path-1"></use>
        </mask>
        <rect id="path-3" x="0" y="5" width="27" height="35" rx="1"></rect>
        <mask id="mask-4" maskContentUnits="userSpaceOnUse" maskUnits="objectBoundingBox" x="0" y="0" width="27" height="35" fill="white">
            <use xlink:href="#path-3"></use>
        </mask>
    </defs>
    <g id="Symbols" stroke="none" stroke-width="1" fill="none" fill-rule="evenodd">
        <g id="rotate">
            <g id="Group-8" transform="translate(1.000000, 0.000000)">
                <g id="Group-5">
                    <g id="phone" transform="translate(21.000000, 0.000000)">
                        <use id="Rectangle-2" stroke="#FFFFFF" mask="url(#mask-2)" stroke-width="4" xlink:href="#path-1"></use>
                        <use id="Rectangle-2" stroke="#FFFFFF" mask="url(#mask-4)" stroke-width="4" xlink:href="#path-3"></use>
                        <rect id="Rectangle-4" fill="#FFFFFF" x="10" y="42" width="7" height="2" rx="1"></rect>
                    </g>
                    <g id="Group-4" transform="translate(0.000000, 26.000000)" stroke="#FFFFFF" stroke-width="2" stroke-linecap="round" stroke-linejoin="round">
                        <path d="M9.12109375,25.6103516 C16.7890625,27.9501953 28.7401254,28.6363636 35,28.6363636 C38.7451096,28.6363636 42.352834,28.3957298 45.7358265,27.950195 C59.8137727,26.0961514 70,20.693805 70,14.3181818 C70,8.17672392 60.5482758,2.93836222 47.2709388,0.904687769" id="Oval-2"></path>
                        <path d="M21.8391283,1.04673306 C9.03137578,3.17443514 0,8.31484217 0,14.3181818" id="Oval-2-Copy"></path>
                        <polyline id="Path-2" transform="translate(9.405494, 25.086285) rotate(-65.000000) translate(-9.405494, -25.086285) " points="6.63549962 26.4487842 9.43316513 23.7237853 12.1754886 26.3948796"></polyline>
                    </g>
                </g>
            </g>
        </g>
    </g>
</svg>